Formula One 2011 Season

Race 7: Canadian Grand Prix, Montreal Circuit

Record Source: BBC One Red Button Stream
Original Format: MPEG TS Stream
Date: Friday 10th June 2011
Time: 15:00 to 16:30

Canada Grand Prix Practice Session 1

BBC F1 coverage of the 1st Practice Session for the 7th Race meeting of the 
2011 Formula One Season, The Canadian Grand Prix, from Montreal

**ONCE AGAIN PLEASE NOTE THAT THE BBC LOST THEIR TV FEED OF THE PRACTICE SESSION WITH 9:23S TO GO, THIS ISNT A RECORDING/ENCODING ERROR. HOPEFULLY THEY HAVE THIS REPAIRED FOR PRACTICE SESSION 2 LATER TODAY!

Complete name                    : F1 2011 Canada Practice 1.mkv
Format                           : Matroska
File size                        : 1.28 GiB
Duration                         : 1h 25mn
Overall bit rate                 : 2 141 Kbps
Writing application              : HandBrake 0.9.5
Writing library                  : libmkv 0.6.4.1

Video
ID                               : 1
Format                           : AVC
Format/Info                      : Advanced Video Codec
Format profile                   : Main@L3.0
Format settings, CABAC           : Yes
Format settings, ReFrames        : 4 frames
Codec ID                         : V_MPEG4/ISO/AVC
Duration                         : 1h 25mn
Bit rate                         : 2 000 Kbps
Width                            : 544 pixels
Height                           : 576 pixels
Display aspect ratio             : 16:9
Frame rate mode                  : Variable
Frame rate                       : 25.000 fps
Color space                      : YUV
Chroma subsampling               : 4:2:0
Bit depth                        : 8 bits
Scan type                        : Progressive
Bits/(Pixel*Frame)               : 0.255
Stream size                      : 1.18 GiB (92%)
Writing library                  : x264 core 112
Language                         : English
Color primaries                  : BT.601-6 525, BT.1358 525, BT.1700 NTSC, SMPTE 170M
Transfer characteristics         : BT.709-5, BT.1361
Matrix coefficients              : BT.601-6 525, BT.1358 525, BT.1700 NTSC, SMPTE 170M

Audio
ID                               : 2
Format                           : AC-3
Format/Info                      : Audio Coding 3
Mode extension                   : CM (complete main)
Codec ID                         : A_AC3
Duration                         : 1h 25mn
Bit rate mode                    : Constant
Bit rate                         : 128 Kbps
Channel(s)                       : 2 channels
Channel positions                : Front: L R
Sampling rate                    : 48.0 KHz
Bit depth                        : 16 bits
Compression mode                 : Lossy
Stream size                      : 78.5 MiB (6%)
Language                         : English



Enjoy, TheBlackKnight